<svg width="39" height="32" viewBox="0 0 39 32" fill="none" xmlns="http://www.w3.org/2000/svg">
<g clip-path="url(#clip0_346_655)" filter="url(#filter0_d_346_655)">
<path d="M4 1.29168V22.9985C4 23.5506 4.45627 24 5.01682 24H33.9415C34.489 24 34.9348 23.5635 34.9374 23.0216L35 3.59769C35.0052 2.88637 34.4238 2.30858 33.7016 2.30858H15.4744L13.4486 0H5.31144C4.58663 0 4 0.577787 4 1.29168Z" fill="#303F65"/>
<path d="M33.5869 3.84961H5.41312C4.63268 3.84961 4 4.47275 4 5.24143V22.611C4 23.3797 4.63268 24.0028 5.41312 24.0028H33.5869C34.3673 24.0028 35 23.3797 35 22.611V5.24143C35 4.47275 34.3673 3.84961 33.5869 3.84961Z" fill="#4B628E"/>
<path d="M17.9021 8.10547C16.367 8.10547 15.119 9.33863 15.119 10.8555C15.119 12.3434 16.2967 13.5476 17.8318 13.5997C17.8786 13.5939 17.9255 13.5939 17.9607 13.5997C17.9724 13.5997 17.9782 13.5997 17.9899 13.5997C17.9958 13.5997 17.9958 13.5997 18.0017 13.5997C19.5016 13.5476 20.6793 12.3434 20.6851 10.8555C20.6851 9.33863 19.4371 8.10547 17.9021 8.10547Z" fill="#303F65"/>
<path d="M20.8785 15.1397C19.2438 14.0628 16.5779 14.0628 14.9315 15.1397C14.1874 15.6318 13.7773 16.2976 13.7773 17.0097C13.7773 17.7218 14.1874 18.3818 14.9256 18.8681C15.7459 19.4123 16.824 19.6844 17.9021 19.6844C18.9801 19.6844 20.0582 19.4123 20.8785 18.8681C21.6167 18.376 22.0269 17.716 22.0269 16.9981C22.021 16.286 21.6167 15.626 20.8785 15.1397Z" fill="#303F65"/>
<path d="M24.3412 11.1968C24.435 12.32 23.6264 13.3042 22.5073 13.4374C22.5015 13.4374 22.5015 13.4374 22.4956 13.4374H22.478C22.4429 13.4374 22.4077 13.4374 22.3784 13.449C21.8101 13.4779 21.2886 13.2984 20.8961 12.9684C21.4996 12.4358 21.8453 11.6368 21.775 10.7684C21.7339 10.2995 21.5699 9.87106 21.3238 9.50632C21.5464 9.39632 21.8042 9.32685 22.0679 9.30369C23.2163 9.20527 24.2416 10.0505 24.3412 11.1968Z" fill="#303F65"/>
<path d="M25.5131 16.5527C25.4662 17.1143 25.1029 17.6006 24.4936 17.9306C23.9077 18.249 23.1694 18.3995 22.437 18.3822C22.8589 18.0059 23.105 17.5369 23.1518 17.039C23.2104 16.3211 22.8647 15.6322 22.1734 15.0822C21.7808 14.7753 21.3238 14.5322 20.8258 14.3527C22.1206 13.9822 23.7495 14.2311 24.7514 15.0301C25.2904 15.4585 25.5658 15.9969 25.5131 16.5527Z" fill="#303F65"/>
</g>
<defs>
<filter id="filter0_d_346_655" x="0" y="0" width="39" height="32" filterUnits="userSpaceOnUse" color-interpolation-filters="sRGB">
<feFlood flood-opacity="0" result="BackgroundImageFix"/>
<feColorMatrix in="SourceAlpha" type="matrix" values="0 0 0 0 0 0 0 0 0 0 0 0 0 0 0 0 0 0 127 0" result="hardAlpha"/>
<feOffset dy="4"/>
<feGaussianBlur stdDeviation="2"/>
<feComposite in2="hardAlpha" operator="out"/>
<feColorMatrix type="matrix" values="0 0 0 0 0 0 0 0 0 0 0 0 0 0 0 0 0 0 0.25 0"/>
<feBlend mode="normal" in2="BackgroundImageFix" result="effect1_dropShadow_346_655"/>
<feBlend mode="normal" in="SourceGraphic" in2="effect1_dropShadow_346_655" result="shape"/>
</filter>
<clipPath id="clip0_346_655">
<rect width="31" height="24" fill="white" transform="translate(4)"/>
</clipPath>
</defs>
</svg>
