<svg width="37" height="37" viewBox="0 0 37 37" fill="none" xmlns="http://www.w3.org/2000/svg">
<circle cx="4.625" cy="4.625" r="4.625" transform="matrix(-1 0 0 1 23.125 13.875)" stroke="#2B3F6C" stroke-width="2.3125"/>
<path d="M25.4376 7.61199L24.8594 8.61333H24.8594L25.4376 7.61199ZM25.4376 29.3875L24.8594 28.3861H24.8594L25.4376 29.3875ZM11.5624 29.3875L12.1405 28.3861L11.5624 29.3875ZM11.5624 7.61199L10.9842 6.61065L11.5624 7.61199ZM13.7561 4.64829L12.6296 4.38763L13.7561 4.64829ZM4.48069 14.9288L3.74544 15.8211L4.48069 14.9288ZM8.18904 28.8911L7.92362 27.7658L8.18904 28.8911ZM14.7062 33.4464L14.4225 34.5673L14.7062 33.4464ZM23.2438 32.3516L24.3703 32.6122L23.2438 32.3516ZM22.2938 33.4464L22.5774 34.5673L22.2938 33.4464ZM30.212 28.5254L31.0901 29.2778L30.212 28.5254ZM28.8109 28.8911L29.0763 27.7658L28.8109 28.8911ZM33.059 13.417L34.1506 13.0359L33.059 13.417ZM3.9409 23.583L2.84926 23.9641L3.9409 23.583ZM4.48069 22.0712L5.21594 22.9636L4.48069 22.0712ZM28.8106 8.1084L28.5452 6.98301L28.8106 8.1084ZM32.5192 22.0712L31.784 22.9636L32.5192 22.0712ZM33.059 23.583L31.9674 23.202L33.059 23.583ZM23.2439 4.64829L22.1174 4.90895L23.2439 4.64829ZM22.2939 3.55367L22.0102 4.67458L22.2939 3.55367ZM22.1174 4.90895C22.4655 6.41341 23.4146 7.77914 24.8594 8.61333L26.0157 6.61065C25.1487 6.11009 24.58 5.29379 24.3704 4.38763L22.1174 4.90895ZM24.8594 8.61333C26.1867 9.37963 27.6942 9.55958 29.0759 9.23379L28.5452 6.98301C27.714 7.17899 26.8128 7.07087 26.0157 6.61065L24.8594 8.61333ZM34.1506 13.0359C33.4637 11.0682 32.4168 9.27061 31.0896 7.72175L29.3336 9.22643C30.4767 10.5605 31.3771 12.1072 31.9674 13.7981L34.1506 13.0359ZM31.9895 18.5C31.9895 17.4218 32.4801 16.4592 33.2545 15.8211L31.784 14.0364C30.4993 15.0949 29.677 16.7019 29.677 18.5H31.9895ZM33.2545 21.1789C32.4801 20.5408 31.9895 19.5782 31.9895 18.5H29.677C29.677 20.2981 30.4993 21.9051 31.784 22.9636L33.2545 21.1789ZM31.0901 29.2778C32.417 27.729 33.4638 25.9316 34.1506 23.9641L31.9674 23.202C31.3771 24.8927 30.4769 26.4392 29.334 27.7731L31.0901 29.2778ZM26.0157 30.3888C26.8129 29.9286 27.7142 29.8205 28.5455 30.0165L29.0763 27.7658C27.6944 27.4399 26.1868 27.6198 24.8594 28.3861L26.0157 30.3888ZM24.3703 32.6122C24.5799 31.7059 25.1486 30.8894 26.0157 30.3888L24.8594 28.3861C23.4144 29.2204 22.4653 30.5864 22.1173 32.0911L24.3703 32.6122ZM18.5 35.0729C19.9055 35.0729 21.2718 34.8977 22.5774 34.5673L22.0101 32.3255C20.8884 32.6093 19.7127 32.7604 18.5 32.7604V35.0729ZM14.4225 34.5673C15.7282 34.8977 17.0944 35.0729 18.5 35.0729V32.7604C17.2873 32.7604 16.1115 32.6093 14.9898 32.3255L14.4225 34.5673ZM10.9842 30.3888C11.8513 30.8894 12.42 31.7059 12.6296 32.6122L14.8827 32.0911C14.5347 30.5864 13.5855 29.2204 12.1405 28.3861L10.9842 30.3888ZM8.45446 30.0165C9.28572 29.8205 10.187 29.9286 10.9842 30.3888L12.1405 28.3861C10.8131 27.6198 9.30547 27.4399 7.92362 27.7658L8.45446 30.0165ZM2.84926 23.9641C3.53611 25.9316 4.58287 27.729 5.90983 29.2778L7.66592 27.7732C6.52299 26.4392 5.62278 24.8927 5.03255 23.202L2.84926 23.9641ZM5.01037 18.5C5.01037 19.5782 4.51983 20.5408 3.74544 21.1789L5.21594 22.9636C6.50062 21.9051 7.32287 20.2981 7.32287 18.5H5.01037ZM3.74544 15.8211C4.51983 16.4592 5.01037 17.4218 5.01037 18.5H7.32287C7.32287 16.7019 6.50062 15.0949 5.21594 14.0364L3.74544 15.8211ZM5.91028 7.72175C4.58311 9.27061 3.53618 11.0682 2.84926 13.0359L5.03255 13.7981C5.62285 12.1072 6.52319 10.5605 7.6663 9.22642L5.91028 7.72175ZM10.9842 6.61065C10.1871 7.07087 9.28587 7.17899 8.45467 6.98301L7.92397 9.23379C9.30573 9.55958 10.8132 9.37964 12.1405 8.61333L10.9842 6.61065ZM12.6296 4.38763C12.4199 5.29379 11.8512 6.11009 10.9842 6.61065L12.1405 8.61333C13.5854 7.77913 14.5344 6.41341 14.8825 4.90894L12.6296 4.38763ZM18.5 1.92709C17.0944 1.92709 15.7281 2.10234 14.4224 2.43274L14.9897 4.67458C16.1114 4.39072 17.2872 4.23959 18.5 4.23959V1.92709ZM22.5776 2.43275C21.2719 2.10234 19.9056 1.92709 18.5 1.92709V4.23959C19.7127 4.23959 20.8885 4.39072 22.0102 4.67458L22.5776 2.43275ZM14.8825 4.90894C14.9066 4.80493 14.9474 4.73156 14.979 4.69308C15.0062 4.66003 15.011 4.66917 14.9897 4.67458L14.4224 2.43274C13.3568 2.70239 12.8066 3.62265 12.6296 4.38763L14.8825 4.90894ZM5.21594 14.0364C5.12208 13.9591 5.06752 13.8754 5.04563 13.8194C5.02722 13.7724 5.04078 13.7745 5.03255 13.7981L2.84926 13.0359C2.43917 14.2106 3.07456 15.2684 3.74544 15.8211L5.21594 14.0364ZM7.92362 27.7658C7.81998 27.7902 7.73631 27.7862 7.68781 27.7749C7.6461 27.7652 7.65183 27.7567 7.66592 27.7732L5.90983 29.2778C6.6237 30.1109 7.69046 30.1967 8.45446 30.0165L7.92362 27.7658ZM14.9898 32.3255C15.0112 32.3309 15.0063 32.34 14.9791 32.307C14.9475 32.2685 14.9067 32.1951 14.8827 32.0911L12.6296 32.6122C12.8066 33.3772 13.3568 34.2976 14.4225 34.5673L14.9898 32.3255ZM22.1173 32.0911C22.0932 32.1951 22.0524 32.2685 22.0208 32.307C21.9936 32.34 21.9888 32.3309 22.0101 32.3255L22.5774 34.5673C23.6431 34.2976 24.1933 33.3772 24.3703 32.6122L22.1173 32.0911ZM29.334 27.7731C29.3481 27.7567 29.3538 27.7652 29.3121 27.7749C29.2636 27.7862 29.1799 27.7902 29.0763 27.7658L28.5455 30.0165C29.3095 30.1967 30.3762 30.1109 31.0901 29.2778L29.334 27.7731ZM31.9674 13.7981C31.9591 13.7745 31.9727 13.7724 31.9543 13.8195C31.9324 13.8754 31.8778 13.9591 31.784 14.0364L33.2545 15.8211C33.9253 15.2684 34.5607 14.2106 34.1506 13.0359L31.9674 13.7981ZM5.03255 23.202C5.04078 23.2255 5.02722 23.2276 5.04563 23.1806C5.06752 23.1246 5.12208 23.0409 5.21594 22.9636L3.74544 21.1789C3.07456 21.7316 2.43917 22.7894 2.84926 23.9641L5.03255 23.202ZM29.0759 9.23379C29.1796 9.20936 29.2632 9.21338 29.3117 9.22467C29.3534 9.23438 29.3477 9.24286 29.3336 9.22643L31.0896 7.72175C30.3758 6.88869 29.3092 6.80289 28.5452 6.98301L29.0759 9.23379ZM7.6663 9.22642C7.65222 9.24286 7.64648 9.23438 7.68819 9.22466C7.73668 9.21337 7.82034 9.20935 7.92397 9.23379L8.45467 6.98301C7.69073 6.80288 6.6241 6.88869 5.91028 7.72175L7.6663 9.22642ZM31.784 22.9636C31.8778 23.0409 31.9324 23.1246 31.9543 23.1806C31.9727 23.2276 31.9591 23.2255 31.9674 23.202L34.1506 23.9641C34.5607 22.7894 33.9253 21.7316 33.2545 21.1789L31.784 22.9636ZM24.3704 4.38763C24.1933 3.62265 23.6431 2.7024 22.5776 2.43275L22.0102 4.67458C21.9889 4.66918 21.9937 4.66004 22.0209 4.69309C22.0525 4.73157 22.0933 4.80494 22.1174 4.90895L24.3704 4.38763Z" fill="#2B3F6C"/>
</svg>
