<svg width="31" height="24" viewBox="0 0 31 24" fill="none" xmlns="http://www.w3.org/2000/svg">
<g clip-path="url(#clip0_1092_5141)">
<path d="M0 1.29168V22.9985C0 23.5506 0.456266 24 1.01682 24H29.9415C30.489 24 30.9348 23.5635 30.9374 23.0216L31 3.59769C31.0052 2.88637 30.4238 2.30858 29.7016 2.30858H11.4744L9.44861 0H1.31144C0.586627 0 0 0.577787 0 1.29168Z" fill="#303F65"/>
<path d="M29.5869 3.84937H1.41312C0.632675 3.84937 0 4.47251 0 5.24119V22.6108C0 23.3794 0.632675 24.0026 1.41312 24.0026H29.5869C30.3673 24.0026 31 23.3794 31 22.6108V5.24119C31 4.47251 30.3673 3.84937 29.5869 3.84937Z" fill="#4B628E"/>
<path d="M13.9022 8.10522C12.3671 8.10522 11.1191 9.33838 11.1191 10.8552C11.1191 12.3431 12.2968 13.5473 13.8319 13.5994C13.8788 13.5936 13.9257 13.5936 13.9608 13.5994C13.9725 13.5994 13.9784 13.5994 13.9901 13.5994C13.996 13.5994 13.996 13.5994 14.0018 13.5994C15.5018 13.5473 16.6794 12.3431 16.6853 10.8552C16.6853 9.33838 15.4373 8.10522 13.9022 8.10522Z" fill="#303F65"/>
<path d="M16.8786 15.1394C15.2439 14.0626 12.578 14.0626 10.9316 15.1394C10.1875 15.6315 9.77734 16.2973 9.77734 17.0094C9.77734 17.7215 10.1875 18.3815 10.9257 18.8678C11.746 19.4121 12.8241 19.6842 13.9022 19.6842C14.9802 19.6842 16.0583 19.4121 16.8786 18.8678C17.6168 18.3757 18.027 17.7157 18.027 16.9978C18.0211 16.2857 17.6168 15.6257 16.8786 15.1394Z" fill="#303F65"/>
<path d="M20.3412 11.197C20.4349 12.3201 19.6263 13.3043 18.5073 13.4375C18.5014 13.4375 18.5014 13.4375 18.4955 13.4375H18.478C18.4428 13.4375 18.4076 13.4375 18.3783 13.4491C17.81 13.478 17.2886 13.2985 16.896 12.9685C17.4995 12.4359 17.8452 11.637 17.7749 10.7685C17.7338 10.2996 17.5698 9.87118 17.3237 9.50644C17.5464 9.39644 17.8042 9.32697 18.0678 9.30381C19.2162 9.20539 20.2415 10.0507 20.3412 11.197Z" fill="#303F65"/>
<path d="M21.513 16.5523C21.4661 17.1139 21.1028 17.6002 20.4935 17.9302C19.9076 18.2486 19.1693 18.3992 18.4369 18.3818C18.8588 18.0055 19.1049 17.5365 19.1517 17.0386C19.2103 16.3207 18.8647 15.6318 18.1733 15.0818C17.7807 14.775 17.3237 14.5318 16.8257 14.3523C18.1205 13.9818 19.7494 14.2307 20.7513 15.0297C21.2903 15.4581 21.5657 15.9965 21.513 16.5523Z" fill="#303F65"/>
</g>
<defs>
<clipPath id="clip0_1092_5141">
<rect width="31" height="24" fill="white"/>
</clipPath>
</defs>
</svg>
