<svg width="50" height="43" viewBox="0 0 50 43" fill="none" xmlns="http://www.w3.org/2000/svg">
<g clip-path="url(#clip0_158_330)">
<path d="M0 27.0554C2.38012 22.3925 4.81267 17.7576 7.10541 13.0527C7.80791 11.6102 8.63274 11.0304 10.2824 11.0758C14.6617 11.1981 19.048 11.1177 23.6299 11.1177C23.6299 8.05802 23.623 5.13454 23.6299 2.21106C23.6369 0.272545 23.9864 -0.198984 25.8283 0.073455C28.0896 0.405272 30.3229 0.978093 32.5283 1.58584C32.8953 1.68713 33.2762 2.46952 33.3007 2.95502C33.3951 4.68047 33.3392 6.4164 33.3357 8.14534C33.3322 9.21414 32.7625 9.82888 31.7175 9.69266C29.9734 9.46912 28.2469 9.10237 26.4574 8.78802V11.1177C30.2635 11.1177 34.0067 11.1177 37.7499 11.1177C38.5607 11.1177 39.3786 11.1911 40.1789 11.1003C41.4861 10.9501 42.1711 11.5543 42.7163 12.679C44.9112 17.1882 47.1725 21.6625 49.4058 26.1543C50.5173 28.3897 50.1083 29.0882 47.6863 29.1302C47.3997 29.1336 47.1096 29.1302 46.5469 29.1302C46.5469 31.8615 46.5469 34.5405 46.5469 37.223C46.5469 39.2209 45.5566 40.2198 43.5761 40.2198C41.1541 40.2198 38.732 40.2198 36.4637 40.2198C36.0828 41.2502 35.7577 42.1269 35.4327 43.0001H14.5883C14.2632 42.1269 13.9417 41.2572 13.5572 40.2198C11.1282 40.2198 8.53838 40.2198 5.94855 40.2198C3.63134 40.2198 3.48106 40.0696 3.48106 37.7714C3.47756 34.9108 3.48106 32.0501 3.48106 29.5179C2.11799 29.0952 1.059 28.7669 0 28.4386C0 27.9775 0 27.513 0 27.0519L0 27.0554ZM33.3566 40.1605C33.3566 34.7187 33.3636 29.4166 33.3427 24.118C33.3427 23.8036 33.2273 23.4019 33.0141 23.1889C30.3893 20.5274 27.7401 17.8903 24.9965 15.1519C23.2001 16.9577 21.6692 18.7949 19.8378 20.2619C17.269 22.3227 16.3533 24.7467 16.5979 28.0299C16.895 32.0292 16.6678 36.0669 16.6678 40.1605H33.3531H33.3566ZM3.74318 26.2521H14.0256C13.3441 23.4369 14.3331 21.418 16.4511 19.6996C18.4783 18.0544 20.2957 16.1509 22.204 14.3591C22.0921 14.1984 21.9768 14.0412 21.865 13.8805C18.1323 13.8805 14.3961 13.8631 10.6634 13.9085C10.3104 13.912 9.80008 14.2473 9.63582 14.5686C7.66811 18.3933 5.75283 22.2458 3.74318 26.2521ZM36.3624 26.28H46.2988C44.2612 22.2109 42.2934 18.2675 40.2873 14.3416C40.1685 14.1076 39.7421 13.905 39.459 13.9015C35.6843 13.8736 31.9097 13.8805 28.1316 13.8805C28.0512 14.0342 27.9708 14.1844 27.8904 14.3381C29.5505 15.9099 31.1617 17.541 32.8883 19.0394C35.0517 20.9151 36.8202 22.9095 36.1841 26.0635C36.1771 26.0984 36.2505 26.1473 36.3624 26.28ZM13.767 37.3976V29.221H6.35747V37.3976H13.767ZM43.6775 37.4256V29.2489H36.2645V37.4256H43.6775ZM30.5012 4.20545C29.1766 3.82823 27.8764 3.45799 26.4749 3.05981V5.59559C27.789 5.99377 29.0787 6.38147 30.5012 6.81109V4.20545Z" fill="white"/>
<path d="M29.1765 24.3449C29.1485 26.6571 27.2857 28.4629 24.9475 28.435C22.6268 28.407 20.8269 26.5523 20.8548 24.2157C20.8828 21.8929 22.7316 20.1046 25.0768 20.1326C27.401 20.1605 29.2045 22.0152 29.1765 24.3449ZM26.9327 24.3868C26.1079 23.7092 25.6185 22.9967 25.1397 23.0036C24.6399 23.0106 24.1506 23.7127 23.6543 24.1109C24.0947 24.6208 24.4582 25.3997 24.9999 25.5569C25.3949 25.6722 26.0275 24.9666 26.9327 24.3868Z" fill="white"/>
</g>
<defs>
<clipPath id="clip0_158_330">
<rect width="50" height="43" fill="white"/>
</clipPath>
</defs>
</svg>
