<svg width="49" height="49" viewBox="0 0 49 49" fill="none" xmlns="http://www.w3.org/2000/svg">
<g clip-path="url(#clip0_158_334)">
<path d="M-0.000171601 18.6765C0.130898 17.8792 0.196433 17.0617 0.403121 16.2795C0.584602 15.5983 0.821536 14.8968 1.19962 14.3013C2.11711 12.848 3.85127 12.7471 5.01073 14.0187C5.75682 14.8363 6.15508 15.8506 6.50292 16.88C7.33975 19.3477 7.79849 21.9011 8.22195 24.4596C8.39335 25.479 8.45888 26.5236 8.94283 27.4622C9.02349 27.6136 9.09911 27.77 9.18985 27.9517C10.5661 26.1401 12.3759 26.2763 14.231 26.7709C16.3281 27.331 18.2186 28.3655 20.0283 29.5312C21.2029 30.2882 22.312 31.146 23.4059 32.014C23.8445 32.3622 24.1621 32.8719 24.5351 33.3109C26.3197 30.7928 29.0117 29.4908 31.6028 28.0678C32.8732 27.3714 34.2192 26.8011 35.666 26.5892C36.3365 26.4883 37.0372 26.4782 37.7077 26.5589C38.5747 26.6598 39.2754 27.1443 39.8098 27.9164C40.3391 27.0131 40.5156 26.0745 40.6618 25.1207C41.1003 22.2392 41.5793 19.3628 42.5824 16.6126C42.895 15.7547 43.3134 14.8968 43.8629 14.1802C45.0577 12.6209 46.9582 12.8177 47.9412 14.5284C48.5663 15.6184 48.7629 16.8346 48.8688 18.0609C49.1107 20.8666 48.9645 23.6724 48.7024 26.4731C48.5915 27.6287 48.5159 28.8045 48.2285 29.9198C47.6942 31.9888 46.449 33.6995 44.9972 35.2134C42.9404 37.3682 40.7626 39.4119 38.6756 41.5415C37.6925 42.5407 36.765 43.5954 35.8777 44.6803C35.0005 45.7602 34.4712 46.9916 34.6225 48.4348C34.6426 48.6064 34.6225 48.783 34.6225 48.9899H14.3117C14.3117 48.3743 14.3923 47.7636 14.2965 47.1732C14.0747 45.7956 13.2631 44.7005 12.3456 43.7266C10.7476 42.031 9.08903 40.401 7.43049 38.766C5.7165 37.0755 3.98738 35.4001 2.54057 33.4573C1.07359 31.4841 0.347668 29.2789 0.277092 26.8314C0.246845 25.7313 0.140981 24.6363 0.0653634 23.5361C0.0552811 23.41 0.0149519 23.2889 -0.0102539 23.1678C-0.0102539 21.669 -0.0102539 20.1652 -0.0102539 18.6664L-0.000171601 18.6765ZM3.43285 16.6933L3.25641 16.7286C3.22113 16.8851 3.16567 17.0365 3.15559 17.1929C3.06485 18.7018 2.90353 20.2157 2.90857 21.7245C2.90857 23.3646 3.11022 25.0046 3.15055 26.6447C3.206 28.8045 3.91176 30.6969 5.30312 32.337C5.83748 32.9678 6.35672 33.6187 6.94654 34.2041C9.10415 36.3589 11.2971 38.4683 13.4446 40.6281C14.7049 41.8998 15.8341 43.2825 16.5953 44.9276C16.7818 45.3263 16.9179 45.7451 17.0692 46.1236H23.1286C23.1387 46.0176 23.1488 45.9369 23.1488 45.8612C23.1488 43.116 23.1488 40.3708 23.1488 37.6255C23.1488 37.5145 23.1438 37.4035 23.1186 37.2925C22.7455 35.6373 21.9238 34.2294 20.5072 33.3109C18.7731 32.1906 16.9683 31.1662 15.1485 30.1872C14.231 29.6927 13.2177 29.3495 12.1339 29.3798C11.6651 29.395 11.5642 29.5211 11.6802 29.9753C11.8314 30.5708 12.1742 31.03 12.6682 31.3933C14.231 32.5489 15.7837 33.7197 17.3414 34.8854C17.5632 35.0519 17.785 35.2285 18.0219 35.4152C17.4321 36.2025 16.8726 36.9493 16.313 37.6962C16.2122 37.6306 16.1517 37.6003 16.1013 37.565C13.8832 35.8997 11.6499 34.2546 9.44695 32.5691C7.3095 30.9341 5.99376 28.7743 5.51989 26.1098C5.18213 24.1821 4.87966 22.2443 4.47133 20.3317C4.20919 19.0954 3.77565 17.8994 3.41773 16.6832L3.43285 16.6933ZM26.0172 46.1539C27.8068 46.1539 29.5107 46.1286 31.2146 46.169C31.7591 46.1791 32.0767 46.063 32.1624 45.4877C32.1926 45.2758 32.3237 45.0739 32.4144 44.8721C33.1908 43.2169 34.3402 41.8291 35.6156 40.5474C37.3598 38.7963 39.1847 37.1209 40.9037 35.3446C42.1187 34.0881 43.2529 32.7457 44.3519 31.3832C45.0224 30.5506 45.5114 29.5615 45.6273 28.4816C45.9852 25.1964 46.2474 21.9062 46.0155 18.5958C45.9701 17.965 45.8491 17.3392 45.7584 16.7135C45.5416 16.9507 45.4357 17.1778 45.35 17.4149C44.3821 20.0794 43.9385 22.865 43.5352 25.6506C43.1168 28.532 41.8263 30.8988 39.4922 32.6599C37.5715 34.1082 35.6408 35.5464 33.7151 36.9947C33.4025 37.2319 33.0849 37.4641 32.7522 37.7164C32.1624 36.9291 31.6079 36.1772 31.0332 35.4102C31.2096 35.2739 31.3457 35.1629 31.4869 35.062C33.1303 33.8307 34.7737 32.5943 36.4222 31.363C36.9162 30.9946 37.2338 30.5203 37.385 29.9248C37.4707 29.5766 37.385 29.3546 36.9767 29.3798C36.6591 29.4 36.3365 29.395 36.0289 29.4606C34.1637 29.8643 32.5153 30.7726 30.9172 31.7617C29.8384 32.4329 28.7394 33.1141 27.8018 33.9569C26.607 35.0317 25.9517 36.4094 25.9971 38.11C26.0575 40.5978 26.0122 43.0907 26.0122 45.5786V46.1488L26.0172 46.1539Z" fill="white"/>
<path d="M31.2853 0C32.0717 0.191761 32.8833 0.302781 33.6345 0.590422C37.4405 2.04882 39.6889 4.81926 40.2736 8.85633C40.8282 12.7067 39.2755 15.7496 36.3819 18.1517C34.6578 19.5849 32.7926 20.8515 31.0131 22.2191C28.9663 23.7935 26.9448 25.3983 24.9133 26.9879C24.7771 27.0938 24.641 27.2048 24.5049 27.3108C23.4513 26.4479 22.4481 25.5597 21.3744 24.7675C19.0958 23.0769 16.7718 21.452 14.4882 19.7665C12.9708 18.6462 11.5542 17.4048 10.4451 15.8607C6.22571 10.017 9.67385 1.47353 16.7718 0.191761C17.0843 0.136251 17.3919 0.0656025 17.6994 0C18.3043 0 18.9092 0 19.5192 0C19.5898 0.0302781 19.6604 0.0756952 19.731 0.0857879C21.1727 0.282595 22.4381 0.873018 23.5723 1.76622C23.8949 2.01854 24.1924 2.30113 24.515 2.58373C25.6241 1.45335 26.8995 0.650978 28.4169 0.252317C28.7647 0.161483 29.1176 0.0857879 29.4705 0C30.0754 0 30.6803 0 31.2853 0ZM24.4999 7.67044C23.9706 6.8378 23.5219 6.04552 22.9875 5.31885C21.7172 3.58795 20.0536 2.65942 17.8506 2.95716C15.1687 3.31545 13.2379 4.74356 12.1491 7.19609C11.0602 9.65366 11.282 12.0406 12.8649 14.2559C13.7673 15.5175 14.9368 16.5066 16.1669 17.42C18.8538 19.4133 21.5609 21.3763 24.2529 23.3595C24.4747 23.5261 24.6007 23.4655 24.7872 23.3242C26.723 21.8658 28.674 20.4326 30.5997 18.9642C32.1322 17.7934 33.7 16.663 35.1317 15.3813C38.7109 12.1768 37.8841 7.33738 35.2275 4.85963C33.6546 3.39619 31.7894 2.67961 29.6318 2.96725C27.9581 3.18929 26.7583 4.18342 25.8459 5.54593C25.3972 6.2171 24.9838 6.91854 24.51 7.6654L24.4999 7.67044Z" fill="white"/>
<path d="M23.0629 17.2989V14.4881H20.2197V11.6066H23.0428V8.65448H25.9061V11.5864H28.7746V14.4527H25.9465V17.2989H23.0629Z" fill="white"/>
</g>
<defs>
<clipPath id="clip0_158_334">
<rect width="49" height="49" fill="white"/>
</clipPath>
</defs>
</svg>
