<svg width="36" height="36" viewBox="0 0 36 36" fill="none" xmlns="http://www.w3.org/2000/svg">
<path d="M3.71875 16.2709C3.71875 14.4499 4.55261 12.7292 5.98187 11.6008L14.1631 5.14196C16.3248 3.43536 19.3752 3.43536 21.5369 5.14196L29.7181 11.6008C31.1474 12.7292 31.9813 14.4499 31.9813 16.2709V26.0313C31.9813 29.3174 29.3173 31.9813 26.0312 31.9813H23.8C22.9785 31.9813 22.3125 31.3153 22.3125 30.4938V26.0313C22.3125 24.3882 20.9805 23.0563 19.3375 23.0563H16.3625C14.7195 23.0563 13.3875 24.3882 13.3875 26.0313V30.4938C13.3875 31.3153 12.7215 31.9813 11.9 31.9813H9.66875C6.38266 31.9813 3.71875 29.3174 3.71875 26.0313L3.71875 16.2709Z" stroke="#361616" stroke-width="2.23125"/>
</svg>
