<svg width="35" height="23" viewBox="0 0 35 23" fill="none" xmlns="http://www.w3.org/2000/svg">
<path d="M3.93162 21.1026H1V19.6667C1 16.9904 2.86858 14.7416 5.39744 14.104M8.32906 9.37028C6.62111 8.77893 5.39744 7.1833 5.39744 5.30771C5.39744 3.43211 6.62111 1.83648 8.32906 1.24513M30.3162 21.1026H33.2479V19.6667C33.2479 16.9904 31.3793 14.7416 28.8504 14.104M25.9188 1.24513C27.6268 1.83648 28.8504 3.43211 28.8504 5.30771C28.8504 7.1833 27.6268 8.77893 25.9188 9.37028M14.1923 13.9231H20.0556C23.2937 13.9231 25.9188 16.4946 25.9188 19.6667V21.1026H8.32906V19.6667C8.32906 16.4946 10.9541 13.9231 14.1923 13.9231ZM21.5214 5.30769C21.5214 7.68677 19.5526 9.61539 17.1239 9.61539C14.6953 9.61539 12.7265 7.68677 12.7265 5.30769C12.7265 2.92862 14.6953 1 17.1239 1C19.5526 1 21.5214 2.92862 21.5214 5.30769Z" stroke="black" stroke-width="1.93846" stroke-linecap="round" stroke-linejoin="round"/>
</svg>
