<svg width="32" height="32" viewBox="0 0 32 32" fill="none" xmlns="http://www.w3.org/2000/svg">
<path d="M14.5045 2.48504C15.1829 1.35779 16.8171 1.35779 17.4955 2.48504L20.8853 8.11763C21.129 8.52259 21.5265 8.81141 21.987 8.91805L28.3913 10.4013C29.6731 10.6982 30.1781 12.2524 29.3156 13.246L25.0062 18.2104C24.6964 18.5673 24.5445 19.0346 24.5854 19.5055L25.1538 26.0548C25.2675 27.3655 23.9454 28.3261 22.734 27.8129L16.6809 25.2485C16.2457 25.0641 15.7543 25.0641 15.3191 25.2485L9.26601 27.8129C8.0546 28.3261 6.73245 27.3655 6.84621 26.0548L7.4146 19.5055C7.45546 19.0346 7.30362 18.5673 6.99379 18.2104L2.68437 13.246C1.82193 12.2524 2.32694 10.6982 3.60865 10.4013L10.013 8.91805C10.4735 8.81141 10.871 8.52259 11.1147 8.11763L14.5045 2.48504Z" stroke="#2B3F6C" stroke-width="2.18182"/>
</svg>
