<svg width="43" height="43" viewBox="0 0 43 43" fill="none" xmlns="http://www.w3.org/2000/svg">
<path d="M31.9685 39.8834L31.9686 39.8834L31.9599 39.8783L23.9327 35.1161C23.7852 35.0286 23.6177 34.9805 23.4463 34.9765C22.6355 34.9572 21.8379 34.8995 21.0885 34.7872L21.0867 34.7869C20.8974 34.7589 20.7411 34.635 20.6724 34.4565C20.6056 34.2828 20.6351 34.1098 20.7585 33.9659C22.2324 32.2472 23.0012 30.1765 23.0012 27.9726C23.0012 22.5052 18.2137 18.1886 12.4926 18.1886C10.3507 18.1886 8.27875 18.7779 6.52618 19.9286C6.3735 20.0237 6.19671 20.0371 6.03032 19.9636C5.86082 19.8797 5.75762 19.7259 5.73935 19.577C5.6821 19.0418 5.64551 18.5206 5.64551 17.9881C5.64551 8.6756 13.7439 1 23.8228 1C33.9018 1 42.0002 8.6756 42.0002 17.9881C42.0002 23.1075 39.6322 27.8219 35.4238 31.062C35.143 31.2782 34.9976 31.6268 35.0416 31.9784L35.7213 37.4137C35.7215 37.4149 35.7216 37.416 35.7217 37.4171C35.8362 38.3998 35.4083 39.307 34.5902 39.8385C34.1856 40.0979 33.7125 40.2386 33.2513 40.2386C32.8045 40.2386 32.3649 40.124 31.9685 39.8834ZM22.9085 32.5074C22.7477 32.8288 22.7717 33.2117 22.9714 33.5104C23.171 33.8092 23.5156 33.9778 23.874 33.9523C23.9156 33.9493 23.9781 33.9599 24.049 34.0072C24.0634 34.0167 24.078 34.0259 24.0928 34.0348L32.4703 39.011C32.7473 39.1828 33.0581 39.2632 33.3743 39.2361C33.6688 39.2109 33.8981 39.0986 34.05 39C34.3784 38.7926 34.8282 38.2965 34.7233 37.527L33.9448 31.2214C33.9248 31.0157 34.0131 30.8317 34.1546 30.7261C38.4836 27.6888 40.9975 23.032 40.9975 17.948C40.9975 9.06192 33.2304 1.9613 23.8228 1.9613C14.7693 1.9613 7.22965 8.55394 6.67042 16.9815C6.64781 17.3223 6.80065 17.651 7.07576 17.8533C7.35086 18.0556 7.7102 18.1036 8.02873 17.9805C9.41932 17.443 10.9188 17.1473 12.4726 17.1473C18.8836 17.1473 23.9839 22.0372 23.9839 27.9325H23.9838L23.984 27.9439C24.0021 29.5353 23.6227 31.0796 22.9085 32.5074Z" stroke="white" stroke-width="2" stroke-linejoin="round"/>
<path d="M5.71077 41.7216L5.7062 41.7187C5.12295 41.343 4.82261 40.7129 4.89639 40.038L5.29557 36.9656C5.34019 36.6221 5.20394 36.28 4.93541 36.0613C2.45584 34.0419 1 31.0605 1 27.9527C1 24.4077 2.85448 21.0773 6.0023 19.0717L6.00232 19.0717L6.01006 19.0667C7.90605 17.834 10.1581 17.1675 12.5113 17.1675C18.9223 17.1675 24.0226 22.0574 24.0226 27.9527C24.0226 30.3522 23.149 32.7239 21.54 34.6063L21.5289 34.6196C19.4613 37.1251 16.3547 38.6071 12.8995 38.7185C12.7307 38.724 12.5661 38.772 12.421 38.8583L7.53872 41.7583C7.53839 41.7585 7.53805 41.7587 7.53771 41.7589C7.25976 41.9228 6.95686 41.9995 6.64602 41.9995C6.31377 41.9995 6.00402 41.9128 5.71077 41.7216ZM7.45689 40.6179L12.2371 37.7791C12.3506 37.7135 12.4378 37.6966 12.4913 37.6966C15.708 37.6966 18.7803 36.3213 20.7458 33.936C22.2076 32.2069 22.9999 30.142 22.9999 27.9327C22.9999 22.4838 18.2109 18.1688 12.4913 18.1688C10.3482 18.1688 8.27517 18.7587 6.52194 19.9107C3.69539 21.7229 1.98271 24.7097 1.98271 27.9527C1.98271 31.0756 3.51637 33.9189 6.17769 35.7387C6.32695 35.8437 6.41212 36.0201 6.39318 36.2219L5.95446 39.6304C5.90564 40.0097 6.07744 40.3837 6.39704 40.5937C6.71664 40.8038 7.12806 40.8132 7.45689 40.6179Z" stroke="white" stroke-width="2" stroke-linejoin="round"/>
<path d="M16.125 13.4373H32.2498" stroke="white" stroke-width="2" stroke-linecap="round"/>
<path d="M21.5 21.4998L32.2499 21.4998" stroke="white" stroke-width="2" stroke-linecap="round"/>
<path d="M8.0625 25.531H16.1249" stroke="white" stroke-width="2" stroke-linecap="round"/>
<path d="M10.75 30.9058L16.1249 30.9058" stroke="white" stroke-width="2" stroke-linecap="round"/>
</svg>
