<svg width="54" height="49" viewBox="0 0 54 49" fill="none" xmlns="http://www.w3.org/2000/svg">
<g clip-path="url(#clip0_158_344)">
<path d="M0.192383 26.2445C0.521219 25.6721 1.02712 25.4979 1.67974 25.5178C2.89896 25.5527 4.12324 25.5178 5.34247 25.5327C5.92931 25.5377 6.34921 25.8762 6.45039 26.3689C6.54651 26.8318 6.29862 27.3245 5.83825 27.4987C5.63589 27.5784 5.39812 27.5883 5.17552 27.5883C4.23454 27.5983 3.29862 27.5883 2.32223 27.5883V32.0727H25.9125V27.5883H25.2953C21.5971 27.5883 17.899 27.5883 14.2008 27.5883C13.9428 27.5883 13.6696 27.5883 13.4268 27.5136C12.9664 27.3693 12.6983 26.8716 12.7742 26.4037C12.8551 25.906 13.27 25.5427 13.8517 25.5327C14.8787 25.5128 15.9108 25.5278 16.9377 25.5278C17.6157 25.5278 18.2986 25.5278 19.0676 25.5278C18.9866 25.3337 18.9259 25.1843 18.8652 25.045C16.7253 20.1524 19.2345 14.5482 24.3442 12.8261C24.7084 12.7017 24.8197 12.5474 24.7995 12.1741C24.4403 6.67932 28.275 1.66235 33.9057 0.42802C34.2902 0.343409 34.6747 0.268752 35.0642 0.189117C35.904 0.189117 36.7388 0.189117 37.5786 0.189117C37.6544 0.223957 37.7303 0.278706 37.8062 0.28866C40.3256 0.612175 42.5162 1.62751 44.3324 3.36951C46.8669 5.80334 48.0609 8.77469 47.8686 12.2637C47.8383 12.7863 47.7775 13.3089 47.727 13.8215C52.2093 14.6975 54.4757 18.7041 53.646 22.3772C53.2109 24.3084 52.1384 25.8314 50.4234 26.8766C48.1823 28.2453 45.8399 28.315 43.4318 27.2897C42.1266 29.7285 40.1081 31.1519 37.4066 31.6148V41.6687C39.4959 40.3398 41.641 40.061 43.8214 41.2108C46.017 42.3704 47.0238 44.2717 47.0238 46.7055C47.1856 46.7453 47.3425 46.7653 47.4841 46.825C47.9496 47.0042 48.2126 47.467 48.1367 47.9399C48.0659 48.3878 47.6915 48.7412 47.216 48.7959C47.0592 48.8158 46.9023 48.8059 46.7455 48.8059C31.705 48.8059 16.6595 48.8059 1.61903 48.8158C0.976531 48.8158 0.495924 48.6516 0.192383 48.0892V47.472C0.485806 46.9693 0.895587 46.6956 1.51279 46.7453C1.91245 46.7802 2.31211 46.7503 2.71683 46.7503C3.26827 46.7503 3.81464 46.7503 4.35596 46.7503V44.0676C3.4251 44.0676 2.51953 44.0378 1.61903 44.0776C0.976531 44.1075 0.500983 43.9133 0.192383 43.3509V38.6127C0.495924 38.0503 0.976531 37.8562 1.61903 37.886C2.53471 37.9258 3.45039 37.896 4.3509 37.896V34.198C3.41498 34.198 2.50942 34.1731 1.60891 34.2079C0.966413 34.2328 0.485806 34.0437 0.192383 33.4663V26.2544V26.2445ZM37.3914 29.4149C37.4571 29.4298 37.4875 29.4448 37.5229 29.4448C37.6089 29.4348 37.6949 29.4249 37.7809 29.405C39.759 28.8376 41.1047 27.6132 41.7927 25.692C42.162 24.6518 42.7691 24.4477 43.7152 25.035C45.5364 26.1599 47.3779 26.1997 49.2447 25.1545C51.8045 23.7211 52.4875 20.0479 50.6308 17.8182C49.5482 16.5142 48.1671 15.8522 46.4571 15.8422C45.5921 15.8373 45.1519 15.2748 45.3391 14.4437C45.3745 14.2943 45.42 14.145 45.4605 13.9957C46.012 11.9203 45.8905 9.87962 45.0204 7.90867C43.0828 3.52878 38.302 1.34382 33.5971 2.66276C29.1856 3.89709 26.3374 8.29689 26.9799 12.8908C27.1317 13.9708 26.8838 14.3292 25.8214 14.578C20.9394 15.7128 18.7033 20.9936 21.3239 25.1794C21.4909 25.4481 21.673 25.5477 21.9867 25.5427C23.5752 25.5278 25.1637 25.5327 26.7523 25.5377C27.6679 25.5377 28.0423 25.921 28.0474 26.8268C28.0474 27.3544 28.0474 27.877 28.0474 28.5738C28.9732 28.2602 29.8079 28.0263 30.5971 27.6928C31.2345 27.4191 31.7607 27.4141 32.2565 27.9218C32.388 28.0562 32.5347 28.1856 32.6814 28.3C33.4352 28.8923 34.2598 29.3303 35.2767 29.4647C35.2767 28.5688 35.2615 27.7277 35.2818 26.8915C35.2919 26.5531 35.1806 26.3191 34.9377 26.0852C33.2632 24.4577 31.6039 22.8152 29.9344 21.1777C29.6308 20.8791 29.3071 20.5357 29.4689 20.1077C29.5853 19.7891 29.8585 19.4457 30.162 19.2964C30.5769 19.0873 31.0018 19.2964 31.3357 19.6249C32.5044 20.7796 33.6781 21.9343 34.8517 23.084C34.963 23.1935 35.0794 23.298 35.2716 23.4722C35.2716 20.9388 35.2716 18.5399 35.2716 16.1359C35.2716 15.9667 35.2615 15.7925 35.2818 15.6232C35.3475 15.0658 35.7978 14.6577 36.329 14.6577C36.8804 14.6577 37.3458 15.0957 37.361 15.678C37.3813 16.4843 37.3711 17.2906 37.3711 18.0969C37.3711 18.6195 37.3711 19.1421 37.3711 19.7692C37.5836 19.5751 37.7152 19.4656 37.8315 19.3462C38.8332 18.3657 39.8298 17.3802 40.8315 16.3997C40.9681 16.2653 41.1098 16.1359 41.2666 16.0314C41.8939 15.6332 42.6325 15.9269 42.8349 16.6386C42.9765 17.1463 42.7034 17.4897 42.3745 17.8132C40.8113 19.3561 39.2329 20.8891 37.6848 22.4469C37.5128 22.6161 37.3914 22.9148 37.3863 23.1537C37.361 25.0948 37.3711 27.0309 37.3762 28.972C37.3762 29.1213 37.3914 29.2756 37.3964 29.4149H37.3914ZM35.2565 42.4351V31.7741C34.184 31.3311 33.0659 31.0524 32.1806 30.4452C31.3711 29.8877 30.7337 29.838 29.8838 30.1764C29.3172 30.4054 28.6797 30.4452 28.0474 30.5796C28.0474 31.3112 28.0474 32.0329 28.0474 32.7496C28.0474 33.8794 27.7388 34.188 26.6005 34.188C25.7 34.188 24.7995 34.188 23.904 34.188V37.886C24.9057 37.886 25.8669 37.886 26.8231 37.886C27.6477 37.886 28.0423 38.2792 28.0474 39.0805C28.0524 40.2651 28.0474 41.4497 28.0474 42.6292C28.0474 43.7541 27.7388 44.0577 26.5904 44.0577C25.6899 44.0577 24.7894 44.0577 23.899 44.0577V46.7254H30.5566C30.8197 45.6105 31.3408 44.64 32.1907 43.8586C33.0507 43.0623 34.0979 42.6243 35.2615 42.4302L35.2565 42.4351ZM21.7388 34.2228H6.49592V37.8611H21.7337V34.2228H21.7388ZM25.9327 39.9764H2.32729V41.9772H25.9327V39.9764ZM6.50098 46.7055H21.7286V44.0875H6.49592V46.7055H6.50098ZM44.8787 46.7155C44.8939 46.6309 44.9091 46.5662 44.9091 46.5015C44.9394 44.9337 43.9327 43.4306 42.4757 42.8582C40.958 42.2659 39.2177 42.5994 38.1806 43.8238C37.6039 44.5056 37.0018 44.65 36.1671 44.5156C34.6696 44.2767 33.0609 45.4712 32.8028 46.7105H44.8787V46.7155Z" fill="white" stroke="white" stroke-width="0.75" stroke-miterlimit="10"/>
<path d="M9.61251 27.5833C9.04084 27.5833 8.57541 27.1354 8.57035 26.5779C8.56529 26.0106 9.07119 25.5128 9.6378 25.5327C10.1892 25.5477 10.6597 26.0305 10.6547 26.5779C10.6496 27.1354 10.1842 27.5833 9.61251 27.5833Z" fill="white" stroke="white" stroke-width="0.75" stroke-miterlimit="10"/>
<path d="M36.3391 10.5266C36.8906 10.5366 37.3611 11.0144 37.3611 11.5619C37.3611 12.1442 36.8703 12.6021 36.2835 12.5772C35.7169 12.5523 35.2616 12.0795 35.2767 11.532C35.2919 10.9945 35.7978 10.5167 36.3391 10.5266Z" fill="white" stroke="white" stroke-width="0.75" stroke-miterlimit="10"/>
</g>
<defs>
<clipPath id="clip0_158_344">
<rect width="54" height="49" fill="white"/>
</clipPath>
</defs>
</svg>
