<svg width="150" height="45" viewBox="0 0 150 45" fill="none" xmlns="http://www.w3.org/2000/svg">
<path d="M99.7686 45.0002L119.871 0.469238H129.604L149.643 45.0002H138.574L127.505 20.2537C127.081 19.3631 126.678 18.4725 126.296 17.5819C125.957 16.6488 125.618 15.737 125.278 14.8464C124.939 13.9134 124.621 13.0015 124.324 12.1109C124.027 11.1779 123.752 10.2873 123.497 9.43905L125.724 9.37544C125.427 10.3509 125.13 11.2839 124.833 12.1745C124.536 13.0651 124.197 13.977 123.815 14.91C123.476 15.8006 123.116 16.6912 122.734 17.5819C122.352 18.4725 121.97 19.3843 121.589 20.3173L110.583 45.0002H99.7686ZM109.184 36.8574L112.619 28.7146H136.602L138.892 36.8574H109.184Z" fill="url(#paint0_linear_110_520)"/>
<path d="M70.1527 45.0002L50.8135 0.469238H62.0735L71.3613 22.9256C71.7006 23.8162 72.1035 24.7916 72.57 25.8519C73.0366 26.8698 73.4819 27.9512 73.906 29.0963C74.3725 30.199 74.8178 31.3441 75.2419 32.5316C75.666 33.719 76.0477 34.9489 76.387 36.2213H74.2241C74.6906 34.6521 75.1995 33.1465 75.7508 31.7045C76.3022 30.2202 76.8747 28.757 77.4685 27.3151C78.0622 25.8731 78.6347 24.4312 79.1861 22.9892L88.0923 0.469238H99.225L80.0767 45.0002H70.1527Z" fill="url(#paint1_linear_110_520)"/>
<path d="M0.353516 45.0002L20.4561 0.469238H30.1893L50.2282 45.0002H39.1591L28.09 20.2537C27.6659 19.3631 27.263 18.4725 26.8813 17.5819C26.542 16.6488 26.2027 15.737 25.8634 14.8464C25.5241 13.9134 25.206 13.0015 24.9092 12.1109C24.6123 11.1779 24.3366 10.2873 24.0822 9.43905L26.3087 9.37544C26.0119 10.3509 25.715 11.2839 25.4181 12.1745C25.1212 13.0651 24.7819 13.977 24.4003 14.91C24.061 15.8006 23.7005 16.6912 23.3188 17.5819C22.9371 18.4725 22.5554 19.3843 22.1737 20.3173L11.1682 45.0002H0.353516ZM9.76864 36.8574L13.2039 28.7146H37.187L39.4772 36.8574H9.76864Z" fill="url(#paint2_linear_110_520)"/>
<defs>
<linearGradient id="paint0_linear_110_520" x1="7.56992" y1="22.6229" x2="114.794" y2="22.6229" gradientUnits="userSpaceOnUse">
<stop stop-color="#F5756F"/>
<stop offset="1" stop-color="#FFA393"/>
</linearGradient>
<linearGradient id="paint1_linear_110_520" x1="7.56992" y1="22.6229" x2="114.794" y2="22.6229" gradientUnits="userSpaceOnUse">
<stop stop-color="#F5756F"/>
<stop offset="1" stop-color="#FFA393"/>
</linearGradient>
<linearGradient id="paint2_linear_110_520" x1="7.56992" y1="22.6229" x2="114.794" y2="22.6229" gradientUnits="userSpaceOnUse">
<stop stop-color="#F5756F"/>
<stop offset="1" stop-color="#FFA393"/>
</linearGradient>
</defs>
</svg>
